<svg height="512pt" viewBox="0 -7 512 512" width="512pt" xmlns="http://www.w3.org/2000/svg"><path d="m105.550781 128.921875c-.402343 0-.808593-.015625-1.214843-.046875-8.390626-.660156-14.65625-8-13.996094-16.390625.867187-10.996094-3.136719-18.777344-12.605469-24.496094-8.539063-5.152343-18.015625-6.433593-18.109375-6.449219-8.359375-.992187-14.289062-8.566406-13.292969-16.925781.992188-8.359375 8.609375-14.316406 16.972657-13.328125 1.527343.179688 15.34375 2.003906 29.082031 9.960938 20.085937 11.628906 30.152343 30.675781 28.339843 53.636718-.628906 7.980469-7.304687 14.039063-15.175781 14.039063zm0 0" fill="#36569c"/><path d="m433.832031 340.972656h-298.667969c7.382813-11.6875 16.308594-24.21875 25.554688-37.1875 41.496094-58.199218 93.132812-130.628906 74.457031-216.957031-9.027343-41.738281-34.242187-70.886719-70.996093-82.074219-36.042969-10.972656-79.335938-2.433594-102.9375 20.300782-10.914063 10.515624-16.378907 22.960937-15.894532 35.796874-22.550781 23.386719-32.890625 53.996094-29.957031 89.035157 2.324219 27.765625 12.300781 48.6875 12.726563 49.566406 2.964843 6.140625 9.648437 9.5625 16.359374 8.382813 6.71875-1.183594 11.832032-6.679688 12.523438-13.464844 1.601562-15.683594 11.769531-33.796875 27.203125-48.445313 15.835937-15.03125 31.601563-21.328125 40.207031-20.878906 3.726563.1875 5.230469 1.523437 6.214844 2.804687 1.402344 1.835938 3.761719 6.496094 3.761719 17.078126 0 28.1875-24.171875 58.023437-52.160157 92.570312-38.542968 47.570312-82.226562 101.488281-82.226562 174.4375 0 .75.0703125 1.480469.175781 2.203125-.1054685 1.65625-.175781 3.320313-.175781 5 0 43.105469 35.066406 78.167969 78.167969 78.167969h355.664062c43.101563 0 78.167969-35.066406 78.167969-78.167969s-35.066406-78.167969-78.167969-78.167969zm-327.925781-84.285156c30.320312-37.425781 58.957031-72.773438 58.957031-111.757812 0-44.855469-29.777343-49.859376-38.902343-50.324219-19.003907-.976563-42.449219 9.953125-62.738282 29.210937-6.699218 6.359375-12.621094 13.210938-17.648437 20.34375-1.097657-21.0625 3.777343-46.292968 26.128906-66.417968 4.242187-3.820313 5.996094-9.695313 4.539063-15.214844-1.34375-5.078125.726562-10.300782 6.144531-15.519532 13.6875-13.183593 44.703125-21.683593 72.914062-13.09375 18.1875 5.535157 41.640625 20.328126 50.085938 59.359376 15.828125 73.160156-29.496094 136.730468-69.484375 192.816406-13.746094 19.277344-26.828125 37.640625-36.070313 54.882812h-21.664062c-12.132813 0-23.625 2.777344-33.882813 7.730469 14.78125-34.195313 39.152344-64.285156 61.621094-92.015625zm327.925781 210.144531h-355.664062c-26.292969 0-47.6875-21.394531-47.6875-47.691406s21.394531-47.6875 47.6875-47.6875h355.664062c26.296875 0 47.6875 21.394531 47.6875 47.6875 0 26.296875-21.390625 47.691406-47.6875 47.691406zm0 0" fill="#ff87b4"/><path d="m137.5 81.65625c7.96875 0 15.605469-7.007812 15.238281-15.238281-.371093-8.257813-6.695312-15.242188-15.238281-15.242188-7.972656 0-15.609375 7.011719-15.242188 15.242188.371094 8.257812 6.695313 15.238281 15.242188 15.238281zm0 0" fill="#36569c"/></svg>